<svg xmlns="http://www.w3.org/2000/svg" xmlns:svgjs="http://svgjs.com/svgjs" xmlns:xlink="http://www.w3.org/1999/xlink" width="288" height="288"><svg xmlns="http://www.w3.org/2000/svg" width="288" height="288" fill="none" viewBox="0 0 154 146"><g fill="#000" class="color000 svgShape" clip-path="url(#a)"><path fill="#1fa1f9" d="M68.3478 133.736C88.8436 138.881 120.488 131.335 136.138 101.404C150.159 74.5226 141.884 40.7283 116.886 22.6756C104.838 14.0992 90.1256 10.1042 75.3952 11.4098C60.6648 12.7153 46.8839 19.2355 36.5324 29.7972C14.7076 52.2652 15.0937 84.1267 27.2709 103.938C32.0731 100.207 36.8323 96.5152 41.5493 92.832C41.6401 92.9284 41.741 93.0148 41.8501 93.0898C35.4191 100.637 28.987 108.184 22.4696 115.773C6.09002 95.5342 0.430241 56.813 24.3131 27.0108C48.4538 -3.04824 92.7893 -8.92303 124.09 13.9713C155.476 36.9127 163.407 80.8648 141.927 113.154C119.631 146.6 78.554 152.561 50.9832 139.139C62.0029 128.762 72.8942 118.429 83.8277 108.136C78.2953 116.498 72.3356 124.474 68.3478 133.736Z" class="color1DA1F2 svgShape"/><path fill="#1fa1f9" d="M58.0132 76.8807C60.3712 84.9853 60.4575 92.829 59.8186 101.023C60.3331 100.38 60.8476 99.7791 61.4052 99.1361C66.9103 93.0352 71.6874 86.3148 75.6405 79.1105C78.0847 74.7363 78.2994 70.4914 75.6405 66.1182C74.5777 64.4221 73.7145 62.609 73.0678 60.7148C71.7389 56.6024 74.0107 53.2532 78.2563 52.6534C78.7964 52.4873 79.3147 52.257 79.7999 51.9673C79.3716 51.539 79.0285 50.9382 78.5561 50.7637C74.2684 49.1337 69.9376 47.6332 65.3068 45.9611C64.5356 49.22 63.8023 51.8359 63.2918 54.4518C62.9909 55.9102 62.3491 56.3385 60.9339 56.0386C59.4756 55.6956 59.3902 54.835 59.6901 53.6374C61.1475 47.7626 62.5627 41.8457 63.9347 35.9278C64.2356 34.684 64.7071 34.0842 66.1213 34.4232C67.5355 34.7622 67.7932 35.5386 67.4933 36.7813C66.9788 38.8396 66.5074 40.9409 65.9889 43.0423C70.9626 44.7144 75.808 46.3443 80.7386 48.0164C81.5962 46.5579 82.4969 44.929 83.4828 43.3853C84.7265 41.4555 86.3122 40.1265 88.8427 40.7263C91.3732 41.3261 92.316 43.2991 92.7874 45.572C92.9111 46.5267 93.0974 47.4722 93.3451 48.4025C94.5486 46.0012 93.9468 43.7715 92.8305 41.5417C93.9735 41.4396 95.1168 41.7333 96.0691 42.3734C97.0214 43.0136 97.725 43.9615 98.062 45.0584C98.8343 47.1598 99.1342 49.3895 100.077 51.6624C100.378 49.8188 100.679 48.0174 100.98 46.1738C103.338 46.7756 103.982 47.7606 106.511 54.7497C106.683 53.4207 106.854 52.0486 107.026 50.7617C109.427 51.876 111.227 57.7087 110.37 60.7529C109.499 63.2967 108.483 65.788 107.326 68.2145C107.069 68.8574 106.683 69.7582 106.939 70.2296C109.169 74.1745 111.57 78.0764 114.061 82.236C116.119 81.3784 118.305 80.4776 120.535 79.5769C121.65 79.1055 122.507 79.0192 123.107 80.4345C123.708 81.8498 123.193 82.4927 121.904 83.0073C116.287 85.2802 110.67 87.6383 105.096 89.9964C103.852 90.511 103.123 90.4248 102.61 89.0937C102.095 87.8078 102.309 87.1207 103.639 86.6493C105.953 85.7466 108.226 84.7626 111.013 83.562C108.784 79.5739 106.683 75.7573 104.193 71.2978C101.234 74.2999 98.405 76.7012 96.1754 79.5739C91.2448 85.9632 86.7855 92.6956 81.7687 99.0418C69.4425 114.482 54.908 128.02 38.6337 139.22C38.3467 139.453 38.0089 139.614 37.6477 139.692C44.08 132.052 48.0684 122.655 49.0957 112.72C33.7006 125.182 17.2765 136.315 0 146C7.54639 139.354 15.4358 133.05 22.5539 126.017C29.6619 118.888 36.3888 111.388 42.7068 103.549C49.0516 95.4334 54.2057 86.4533 58.0132 76.8807Z" class="color1DA1F2 svgShape"/></g><defs><clipPath id="a"><rect width="154" height="146" fill="#1da1f2" class="colorfff svgShape"/></clipPath></defs></svg></svg>