<?xml version="1.0" standalone="no"?>
<!DOCTYPE svg PUBLIC "-//W3C//DTD SVG 20010904//EN"
 "http://www.w3.org/TR/2001/REC-SVG-20010904/DTD/svg10.dtd">
<svg version="1.0" xmlns="http://www.w3.org/2000/svg"
 width="288" height="288" viewBox="0 0 1080.000000 1080.000000"
 preserveAspectRatio="xMidYMid meet">

<g transform="translate(0.000000,1080.000000) scale(0.100000,-0.100000)"
fill="#000000" stroke="none">
<path d="M0 5400 l0 -5400 5400 0 5400 0 0 5400 0 5400 -5400 0 -5400 0 0
-5400z m8740 -15 l0 -815 -160 0 -160 0 0 815 0 815 160 0 160 0 0 -815z
m-2117 706 c108 -30 207 -71 207 -86 0 -14 -88 -227 -98 -237 -4 -4 -51 9
-105 28 -54 18 -137 39 -185 45 -75 10 -95 10 -144 -5 -96 -28 -138 -106 -103
-193 21 -52 61 -80 261 -182 300 -152 384 -253 384 -460 0 -222 -107 -358
-335 -428 -49 -15 -92 -18 -240 -17 -164 0 -187 3 -265 27 -47 14 -102 33
-122 41 l-38 16 0 150 c0 83 3 150 6 150 4 0 59 -20 123 -44 152 -58 262 -80
363 -73 89 6 131 25 165 77 27 38 30 97 9 139 -26 49 -81 88 -254 175 -198
101 -280 164 -333 255 -93 158 -73 370 46 499 63 68 126 105 227 132 100 27
315 22 431 -9z m-3891 -2 c269 -42 409 -198 410 -459 2 -261 -123 -429 -367
-495 -36 -10 -121 -19 -212 -22 l-153 -6 0 -268 0 -269 -165 0 -165 0 0 765 0
765 291 0 c161 0 322 -5 361 -11z m1336 -345 c125 -28 219 -100 268 -207 l29
-62 3 -452 3 -453 -115 0 -114 0 -27 75 c-15 41 -31 75 -34 75 -4 0 -27 -21
-51 -46 -88 -90 -176 -124 -326 -124 -246 0 -377 126 -377 365 0 149 56 246
176 304 96 47 167 62 365 74 l182 11 0 46 c0 61 -35 128 -80 152 -70 38 -246
14 -412 -57 -14 -5 -26 12 -67 94 -28 55 -51 105 -51 111 0 15 71 47 167 75
144 42 323 50 461 19z m3681 1 c191 -45 342 -201 392 -405 20 -81 17 -308 -5
-390 -55 -201 -193 -339 -387 -385 -81 -19 -236 -19 -317 0 -192 45 -332 188
-389 396 -24 88 -24 308 0 398 70 261 258 399 542 400 56 1 128 -6 164 -14z
m-2752 -350 c63 -187 121 -373 129 -414 8 -41 16 -76 18 -78 2 -2 6 20 10 49
4 29 61 216 127 414 65 199 119 365 119 368 0 3 79 6 176 6 164 0 176 -1 169
-17 -4 -10 -114 -306 -246 -658 -132 -352 -257 -677 -279 -722 -96 -197 -297
-310 -509 -289 -121 13 -111 0 -111 145 l0 127 93 -4 c79 -4 99 -1 133 16 69
36 121 105 153 203 11 36 4 55 -219 613 -126 317 -230 578 -230 581 0 3 79 4
177 3 l176 -3 114 -340z"/>
<path d="M2410 5605 l0 -228 108 6 c124 6 186 25 232 70 44 43 60 84 60 157 0
97 -31 154 -105 193 -33 17 -63 22 -167 25 l-128 4 0 -227z"/>
<path d="M3885 5100 c-149 -13 -215 -63 -223 -170 -7 -100 36 -140 151 -140
155 0 237 87 237 252 l0 68 -42 -1 c-24 -1 -79 -5 -123 -9z"/>
<path d="M7505 5488 c-16 -6 -42 -19 -57 -30 -71 -49 -112 -230 -90 -394 25
-189 102 -264 259 -251 125 10 184 83 205 254 20 168 -19 337 -90 390 -54 40
-160 55 -227 31z"/>
</g>
</svg>
