<svg version="1.1" id="Layer_1" xmlns="http://www.w3.org/2000/svg" xmlns:xlink="http://www.w3.org/1999/xlink" x="0px" y="0px"
	 width="100%" viewBox="0 0 1080 1080" enable-background="new 0 0 1080 1080" xml:space="preserve">
<path fill="#FDDB42" opacity="1.000000" stroke="none" 
	d="
M470.000000,1081.000000 
	C313.351349,1081.000000 157.202713,1081.000000 1.027031,1081.000000 
	C1.027031,721.059570 1.027031,361.119141 1.027031,1.089344 
	C360.898865,1.089344 720.797791,1.089344 1080.848389,1.089344 
	C1080.848389,360.999939 1080.848389,720.999939 1080.848389,1081.000000 
	C877.451965,1081.000000 673.976013,1081.000000 470.000000,1081.000000 
M412.742279,607.992615 
	C411.345062,608.108582 409.947845,608.224548 408.167297,608.372375 
	C408.167297,625.297119 408.167297,641.727783 408.167297,658.167847 
	C391.010010,658.167847 374.289825,658.167847 357.230225,658.167847 
	C357.230225,641.290283 357.230225,624.824646 357.230225,608.316895 
	C347.987488,608.316895 339.094452,608.316895 330.338104,608.316895 
	C330.338104,651.373169 330.338104,694.104309 330.338104,736.739502 
	C339.442596,736.739502 348.199219,736.739502 357.450378,736.739502 
	C357.450378,718.224976 357.450378,699.970520 357.450378,681.479736 
	C374.547150,681.479736 391.143616,681.479736 408.391907,681.479736 
	C408.391907,699.973938 408.391907,718.371643 408.391907,736.735291 
	C417.813019,736.735291 426.580383,736.735291 435.458954,736.735291 
	C435.458954,693.739502 435.458954,651.014038 435.458954,607.992554 
	C427.993774,607.992554 420.845490,607.992554 412.742279,607.992615 
M524.041687,383.701782 
	C510.896332,382.568970 500.606201,387.838715 492.618713,398.939697 
	C491.252258,394.520538 490.339020,391.149292 489.125732,387.889771 
	C488.745605,386.868652 487.579773,385.430817 486.735260,385.404327 
	C480.167969,385.198151 473.591278,385.290405 467.025146,385.290405 
	C467.025146,433.035553 467.025146,480.069916 467.025146,527.071655 
	C475.948914,527.071655 484.537689,527.071655 492.992981,527.071655 
	C492.992981,509.072418 492.992981,491.369568 492.992981,472.990387 
	C494.344208,474.269684 495.489136,475.311493 496.587189,476.400604 
	C501.205261,480.981049 506.650085,483.981812 513.096558,485.066345 
	C532.864441,488.392151 548.484375,479.200592 554.928833,459.692413 
	C560.573792,442.604309 560.474731,425.149750 554.674683,408.170563 
	C549.919617,394.250427 540.322876,385.186554 524.041687,383.701782 
M245.416672,374.158386 
	C240.135406,364.620758 231.841248,358.147064 221.366486,357.297363 
	C201.672409,355.699768 181.842682,355.772644 162.068436,355.182037 
	C161.832932,355.174988 161.585083,355.581207 161.429276,355.718506 
	C161.429276,398.398285 161.429276,440.996490 161.429276,483.657867 
	C170.577728,483.657867 179.454285,483.657867 188.742355,483.657867 
	C188.742355,468.385681 188.742355,453.456818 188.742355,438.564819 
	C197.598434,438.036835 206.129883,438.158691 214.452484,436.899872 
	C231.388138,434.338226 244.068161,425.870270 248.612946,408.405518 
	C251.581070,396.999542 251.115494,385.627716 245.416672,374.158386 
M891.053772,437.414948 
	C889.383850,443.153015 887.713928,448.891083 886.356201,453.556366 
	C879.253113,432.115051 871.983093,410.083618 864.587036,388.094604 
	C864.208923,386.970551 862.766357,385.426544 861.788391,385.403717 
	C852.870850,385.195343 843.946411,385.281372 834.396667,385.281372 
	C835.288086,387.671936 835.877991,389.358673 836.540955,391.016235 
	C848.268066,420.335602 860.010193,449.648987 871.720703,478.974976 
	C872.329834,480.500305 873.124512,482.136108 873.090576,483.704407 
	C872.823181,496.041595 860.583496,506.689697 848.022278,505.658051 
	C845.616272,505.460480 843.216858,505.182648 840.645874,504.924957 
	C840.645874,512.239136 840.645874,518.982178 840.645874,525.645325 
	C862.281128,531.707703 882.158875,523.118103 892.193298,503.476288 
	C893.701172,500.524658 894.958923,497.428894 896.126831,494.322601 
	C908.176697,462.273499 920.185730,430.209045 932.202026,398.147339 
	C933.758118,393.995422 935.291138,389.834869 936.919922,385.449280 
	C927.021851,385.449280 917.725952,385.449280 908.207886,385.449280 
	C902.540833,402.575806 896.904297,419.609955 891.053772,437.414948 
M492.796295,640.002441 
	C492.124939,639.433960 491.460449,638.380432 490.781219,638.370850 
	C482.661011,638.256409 474.538605,638.296997 466.573975,638.296997 
	C466.573975,663.174194 466.112854,687.605591 466.794617,712.005066 
	C467.078400,722.161621 472.789185,730.306580 482.296326,734.881958 
	C497.009491,741.962830 521.104736,739.905029 530.864380,725.125793 
	C531.073730,724.808716 531.689148,724.759827 532.503296,724.427307 
	C533.802307,728.644409 535.051941,732.701355 536.278931,736.684692 
	C543.194275,736.684692 549.938599,736.684692 556.639343,736.684692 
	C556.639343,703.806702 556.639343,671.250244 556.639343,638.648071 
	C547.619812,638.648071 538.910339,638.648071 529.956482,638.648071 
	C529.956482,655.006042 530.185486,670.994629 529.837280,686.970642 
	C529.708313,692.888855 528.869873,698.966248 527.213013,704.637390 
	C524.394226,714.285583 516.578552,718.405945 505.602417,717.059082 
	C498.020599,716.128662 493.624298,710.354126 492.985046,700.385193 
	C492.835999,698.060730 492.835602,695.724182 492.833862,693.393188 
	C492.820770,675.903442 492.824493,658.413757 492.796295,640.002441 
M577.455505,414.999542 
	C576.657776,423.742157 574.921448,432.521698 575.263367,441.219513 
	C575.916382,457.829193 582.502991,471.948700 598.094788,479.527130 
	C617.653320,489.033752 637.770508,487.489746 657.647583,479.871735 
	C658.716064,479.462219 659.978455,477.852234 660.021301,476.756927 
	C660.254089,470.806213 660.131775,464.841614 660.131775,458.937897 
	C659.431213,458.833405 659.062622,458.659668 658.792908,458.757782 
	C657.233582,459.324982 655.707581,459.983124 654.152161,460.561554 
	C643.091797,464.674225 631.771240,467.157013 619.948425,464.976654 
	C609.000854,462.957764 601.541443,452.673920 602.832092,441.307861 
	C613.223022,441.307861 623.677002,441.307892 634.131042,441.307892 
	C644.588318,441.307892 655.045593,441.307861 665.437988,441.307861 
	C668.808899,409.305908 657.550110,389.821259 633.046936,384.622681 
	C607.124939,379.123108 585.198303,390.872406 577.455505,414.999542 
M349.410858,423.035828 
	C349.254852,429.023376 348.698944,435.031982 349.012421,440.994843 
	C350.341278,466.272644 366.492767,483.042480 391.641022,485.604889 
	C417.099030,488.198883 437.054352,474.700226 442.399841,450.708282 
	C443.795563,444.443817 444.153992,437.811951 444.027222,431.367737 
	C443.418213,400.416962 422.748718,381.679474 391.915375,383.763123 
	C368.440887,385.349457 353.418060,398.997467 349.410858,423.035828 
M664.488403,737.004456 
	C668.269226,737.004456 672.050110,737.004456 675.873596,737.004456 
	C675.873596,712.984070 676.294312,689.507019 675.697693,666.055847 
	C675.395020,654.158203 669.665894,644.770569 658.130493,639.759827 
	C641.475586,632.525330 622.850708,636.710632 611.046448,650.402954 
	C610.780579,650.711365 610.197083,650.745972 609.466309,651.018555 
	C608.111084,646.707214 606.798279,642.531006 605.579407,638.653442 
	C598.459534,638.653442 591.876221,638.653442 585.418274,638.653442 
	C585.418274,671.614014 585.418274,704.194153 585.418274,736.794373 
	C594.364197,736.794373 602.970459,736.794373 612.019470,736.794373 
	C612.019470,734.972229 612.018860,733.352600 612.019592,731.732971 
	C612.025635,717.400635 611.808655,703.062988 612.147339,688.738464 
	C612.283752,682.969421 613.036804,677.063721 614.565979,671.511292 
	C617.464355,660.987305 626.873779,655.936157 637.518250,658.431580 
	C644.565857,660.083862 648.779297,665.681396 648.968628,675.145386 
	C649.295288,691.471191 649.144165,707.806519 649.188171,724.137878 
	C649.199280,728.264526 649.189819,732.391174 649.189819,737.004456 
	C654.257629,737.004456 658.877197,737.004456 664.488403,737.004456 
M761.236450,651.306213 
	C761.236450,647.040710 761.236450,642.775208 761.236450,638.149658 
	C751.786804,638.149658 743.015381,638.149658 733.655823,638.149658 
	C733.655823,631.074951 733.655823,624.353760 733.655823,617.268188 
	C730.258606,617.268188 727.454773,617.268188 724.651001,617.268188 
	C716.554871,617.268188 716.049011,617.124573 713.808594,625.017090 
	C711.107117,634.533997 706.186768,641.641418 696.850952,645.493713 
	C695.611267,646.005310 694.240906,647.695007 694.065918,648.992188 
	C693.656006,652.030701 693.934814,655.162109 693.934814,658.686035 
	C698.511108,658.686035 702.444580,658.686035 706.848267,658.686035 
	C706.848267,660.925964 706.844238,662.723389 706.848877,664.520752 
	C706.889038,680.010620 706.692261,695.505920 707.044434,710.988708 
	C707.347595,724.323242 713.402893,733.329590 723.943176,736.633728 
	C735.986816,740.409302 747.967712,739.127502 759.729614,735.155151 
	C760.800293,734.793518 762.146179,733.233582 762.190369,732.180786 
	C762.431396,726.430359 762.305115,720.664429 762.305115,714.999207 
	C756.475586,715.789734 751.266052,716.895142 746.019104,717.116943 
	C737.533936,717.475586 733.844788,713.697998 733.793762,705.120056 
	C733.710449,691.129150 733.761536,677.137329 733.779968,663.145935 
	C733.781860,661.707336 733.946899,660.268982 734.057800,658.483337 
	C743.223633,658.483337 751.993774,658.483337 761.236389,658.483337 
	C761.236389,656.163147 761.236389,654.196960 761.236450,651.306213 
M827.292664,481.715027 
	C827.759766,475.107269 828.226868,468.499512 828.685608,462.009521 
	C822.200623,462.834961 816.808655,463.930969 811.385986,464.113098 
	C803.705017,464.371124 799.886658,460.565369 799.822754,452.979309 
	C799.696289,437.985046 799.773499,422.988953 799.803223,407.993744 
	C799.804749,407.234131 800.151733,406.475189 800.421814,405.373413 
	C809.335876,405.373413 818.097107,405.373413 826.985840,405.373413 
	C826.985840,398.540619 826.985840,392.108521 826.985840,385.137451 
	C817.851746,385.137451 808.953125,385.137451 799.655884,385.137451 
	C799.655884,378.006989 799.655884,371.410339 799.655884,364.268188 
	C795.965820,364.268188 792.630310,364.625061 789.402283,364.187958 
	C784.007935,363.457458 781.099548,365.415161 780.008606,370.795197 
	C777.945251,380.970764 772.547668,388.575836 762.623291,392.648041 
	C761.433960,393.136017 760.229675,394.936768 760.052246,396.265228 
	C759.664368,399.169525 759.932251,402.161407 759.932251,405.746094 
	C764.441833,405.746094 768.499023,405.746094 772.848267,405.746094 
	C772.848267,408.186371 772.843872,409.995056 772.848999,411.803741 
	C772.893066,427.298279 772.621399,442.802032 773.071716,458.284790 
	C773.540894,474.417175 781.721375,483.091339 797.542664,485.282715 
	C807.479675,486.659119 817.113770,485.208679 827.292664,481.715027 
M298.670654,401.293488 
	C297.814148,400.353699 296.500885,399.546875 296.181824,398.450653 
	C294.933319,394.161560 293.998962,389.781067 292.956207,385.469086 
	C286.141968,385.469086 279.691376,385.469086 272.988525,385.469086 
	C272.988525,418.365540 272.988525,451.063690 272.988525,483.771759 
	C281.889191,483.771759 290.490143,483.771759 299.554749,483.771759 
	C299.554749,481.750580 299.550507,479.948944 299.555389,478.147308 
	C299.597229,462.661865 299.354584,447.168671 299.775360,431.693512 
	C300.104889,419.572113 306.454193,412.177338 318.359894,409.742767 
	C323.622070,408.666718 329.150665,408.893402 334.815247,408.511353 
	C335.434204,400.533295 336.058838,392.482269 336.684967,384.411865 
	C320.074158,381.294373 307.940338,387.260834 298.670654,401.293488 
M714.849304,450.500092 
	C714.853027,444.839081 714.782654,439.176819 714.874939,433.517273 
	C715.114380,418.830963 723.489197,409.952545 738.166748,408.947144 
	C742.066833,408.679993 746.000610,408.906769 750.011108,408.906769 
	C750.684570,400.456421 751.327148,392.393188 752.052979,383.286133 
	C745.547058,383.858124 739.661499,383.706268 734.119263,385.011963 
	C724.622375,387.249268 718.447205,394.337158 712.549805,402.996368 
	C711.176880,397.393219 710.232971,392.902130 708.905762,388.527283 
	C708.525269,387.273071 707.080566,385.479126 706.048950,385.427429 
	C700.122131,385.130341 694.172791,385.282837 688.151367,385.282837 
	C688.151367,418.460144 688.151367,451.022827 688.151367,483.690796 
	C697.094055,483.690796 705.804932,483.690796 714.849304,483.690796 
	C714.849304,472.753418 714.849304,462.126740 714.849304,450.500092 
z"/>
<path fill="#030201" opacity="1.000000" stroke="none" 
	d="
M413.219727,607.992554 
	C420.845490,607.992554 427.993774,607.992554 435.458954,607.992554 
	C435.458954,651.014038 435.458954,693.739502 435.458954,736.735291 
	C426.580383,736.735291 417.813019,736.735291 408.391907,736.735291 
	C408.391907,718.371643 408.391907,699.973938 408.391907,681.479736 
	C391.143616,681.479736 374.547150,681.479736 357.450378,681.479736 
	C357.450378,699.970520 357.450378,718.224976 357.450378,736.739502 
	C348.199219,736.739502 339.442596,736.739502 330.338104,736.739502 
	C330.338104,694.104309 330.338104,651.373169 330.338104,608.316895 
	C339.094452,608.316895 347.987488,608.316895 357.230225,608.316895 
	C357.230225,624.824646 357.230225,641.290283 357.230225,658.167847 
	C374.289825,658.167847 391.010010,658.167847 408.167297,658.167847 
	C408.167297,641.727783 408.167297,625.297119 408.167297,608.372375 
	C409.947845,608.224548 411.345062,608.108582 413.219727,607.992554 
z"/>
<path fill="#030201" opacity="1.000000" stroke="none" 
	d="
M524.470825,383.729919 
	C540.322876,385.186554 549.919617,394.250427 554.674683,408.170563 
	C560.474731,425.149750 560.573792,442.604309 554.928833,459.692413 
	C548.484375,479.200592 532.864441,488.392151 513.096558,485.066345 
	C506.650085,483.981812 501.205261,480.981049 496.587189,476.400604 
	C495.489136,475.311493 494.344208,474.269684 492.992981,472.990387 
	C492.992981,491.369568 492.992981,509.072418 492.992981,527.071655 
	C484.537689,527.071655 475.948914,527.071655 467.025146,527.071655 
	C467.025146,480.069916 467.025146,433.035553 467.025146,385.290405 
	C473.591278,385.290405 480.167969,385.198151 486.735260,385.404327 
	C487.579773,385.430817 488.745605,386.868652 489.125732,387.889771 
	C490.339020,391.149292 491.252258,394.520538 492.618713,398.939697 
	C500.606201,387.838715 510.896332,382.568970 524.470825,383.729919 
M495.171478,417.994415 
	C492.893005,428.552704 492.854279,439.155457 495.176270,449.667877 
	C497.215485,458.900391 502.980927,463.579742 511.883667,463.937134 
	C520.586548,464.286560 526.306091,460.210236 529.006958,451.059631 
	C532.179321,440.311829 532.214539,429.365417 529.351135,418.559998 
	C526.980896,409.615173 521.686646,405.339355 513.673157,405.045624 
	C504.099030,404.694672 498.932373,408.141754 495.171478,417.994415 
z"/>
<path fill="#030301" opacity="1.000000" stroke="none" 
	d="
M245.618256,374.471222 
	C251.115494,385.627716 251.581070,396.999542 248.612946,408.405518 
	C244.068161,425.870270 231.388138,434.338226 214.452484,436.899872 
	C206.129883,438.158691 197.598434,438.036835 188.742355,438.564819 
	C188.742355,453.456818 188.742355,468.385681 188.742355,483.657867 
	C179.454285,483.657867 170.577728,483.657867 161.429276,483.657867 
	C161.429276,440.996490 161.429276,398.398285 161.429276,355.718506 
	C161.585083,355.581207 161.832932,355.174988 162.068436,355.182037 
	C181.842682,355.772644 201.672409,355.699768 221.366486,357.297363 
	C231.841248,358.147064 240.135406,364.620758 245.618256,374.471222 
M188.640686,408.430420 
	C188.640686,410.715851 188.640686,413.001251 188.640686,416.876648 
	C197.024811,415.531311 204.846558,415.083435 212.140854,412.885284 
	C219.880096,410.553070 223.389038,403.239502 222.740982,394.474091 
	C222.087997,385.641632 218.274857,380.102539 210.208893,378.614227 
	C203.302795,377.339935 196.139420,377.460022 188.640686,376.931763 
	C188.640686,387.827026 188.640686,397.638123 188.640686,408.430420 
z"/>
<path fill="#030301" opacity="1.000000" stroke="none" 
	d="
M891.160767,437.029510 
	C896.904297,419.609955 902.540833,402.575806 908.207886,385.449280 
	C917.725952,385.449280 927.021851,385.449280 936.919922,385.449280 
	C935.291138,389.834869 933.758118,393.995422 932.202026,398.147339 
	C920.185730,430.209045 908.176697,462.273499 896.126831,494.322601 
	C894.958923,497.428894 893.701172,500.524658 892.193298,503.476288 
	C882.158875,523.118103 862.281128,531.707703 840.645874,525.645325 
	C840.645874,518.982178 840.645874,512.239136 840.645874,504.924957 
	C843.216858,505.182648 845.616272,505.460480 848.022278,505.658051 
	C860.583496,506.689697 872.823181,496.041595 873.090576,483.704407 
	C873.124512,482.136108 872.329834,480.500305 871.720703,478.974976 
	C860.010193,449.648987 848.268066,420.335602 836.540955,391.016235 
	C835.877991,389.358673 835.288086,387.671936 834.396667,385.281372 
	C843.946411,385.281372 852.870850,385.195343 861.788391,385.403717 
	C862.766357,385.426544 864.208923,386.970551 864.587036,388.094604 
	C871.983093,410.083618 879.253113,432.115051 886.356201,453.556366 
	C887.713928,448.891083 889.383850,443.153015 891.160767,437.029510 
z"/>
<path fill="#030301" opacity="1.000000" stroke="none" 
	d="
M492.809631,640.463257 
	C492.824493,658.413757 492.820770,675.903442 492.833862,693.393188 
	C492.835602,695.724182 492.835999,698.060730 492.985046,700.385193 
	C493.624298,710.354126 498.020599,716.128662 505.602417,717.059082 
	C516.578552,718.405945 524.394226,714.285583 527.213013,704.637390 
	C528.869873,698.966248 529.708313,692.888855 529.837280,686.970642 
	C530.185486,670.994629 529.956482,655.006042 529.956482,638.648071 
	C538.910339,638.648071 547.619812,638.648071 556.639343,638.648071 
	C556.639343,671.250244 556.639343,703.806702 556.639343,736.684692 
	C549.938599,736.684692 543.194275,736.684692 536.278931,736.684692 
	C535.051941,732.701355 533.802307,728.644409 532.503296,724.427307 
	C531.689148,724.759827 531.073730,724.808716 530.864380,725.125793 
	C521.104736,739.905029 497.009491,741.962830 482.296326,734.881958 
	C472.789185,730.306580 467.078400,722.161621 466.794617,712.005066 
	C466.112854,687.605591 466.573975,663.174194 466.573975,638.296997 
	C474.538605,638.296997 482.661011,638.256409 490.781219,638.370850 
	C491.460449,638.380432 492.124939,639.433960 492.809631,640.463257 
z"/>
<path fill="#030301" opacity="1.000000" stroke="none" 
	d="
M577.602539,414.626587 
	C585.198303,390.872406 607.124939,379.123108 633.046936,384.622681 
	C657.550110,389.821259 668.808899,409.305908 665.437988,441.307861 
	C655.045593,441.307861 644.588318,441.307892 634.131042,441.307892 
	C623.677002,441.307892 613.223022,441.307861 602.832092,441.307861 
	C601.541443,452.673920 609.000854,462.957764 619.948425,464.976654 
	C631.771240,467.157013 643.091797,464.674225 654.152161,460.561554 
	C655.707581,459.983124 657.233582,459.324982 658.792908,458.757782 
	C659.062622,458.659668 659.431213,458.833405 660.131775,458.937897 
	C660.131775,464.841614 660.254089,470.806213 660.021301,476.756927 
	C659.978455,477.852234 658.716064,479.462219 657.647583,479.871735 
	C637.770508,487.489746 617.653320,489.033752 598.094788,479.527130 
	C582.502991,471.948700 575.916382,457.829193 575.263367,441.219513 
	C574.921448,432.521698 576.657776,423.742157 577.602539,414.626587 
M640.077820,418.983765 
	C637.631348,406.856018 630.302246,401.416534 618.457764,402.937927 
	C609.045349,404.146912 602.581299,412.750824 603.436584,423.446228 
	C614.833801,423.446228 626.274963,423.397888 637.715149,423.480011 
	C640.600464,423.500732 640.475952,421.852417 640.077820,418.983765 
z"/>
<path fill="#020201" opacity="1.000000" stroke="none" 
	d="
M349.515350,422.611877 
	C353.418060,398.997467 368.440887,385.349457 391.915375,383.763123 
	C422.748718,381.679474 443.418213,400.416962 444.027222,431.367737 
	C444.153992,437.811951 443.795563,444.443817 442.399841,450.708282 
	C437.054352,474.700226 417.099030,488.198883 391.641022,485.604889 
	C366.492767,483.042480 350.341278,466.272644 349.012421,440.994843 
	C348.698944,435.031982 349.254852,429.023376 349.515350,422.611877 
M401.657043,463.637268 
	C408.993835,461.998138 413.031677,456.959595 414.837860,450.110382 
	C417.557404,439.797516 417.610504,429.346375 414.864166,419.027496 
	C412.432159,409.889648 406.100006,405.278839 396.568970,405.155487 
	C387.090607,405.032806 380.069183,409.408569 378.289612,418.765289 
	C376.702362,427.110626 376.215820,435.953400 377.030792,444.404297 
	C378.484344,459.477081 385.807922,464.882538 401.657043,463.637268 
z"/>
<path fill="#020201" opacity="1.000000" stroke="none" 
	d="
M663.992554,737.004456 
	C658.877197,737.004456 654.257629,737.004456 649.189819,737.004456 
	C649.189819,732.391174 649.199280,728.264526 649.188171,724.137878 
	C649.144165,707.806519 649.295288,691.471191 648.968628,675.145386 
	C648.779297,665.681396 644.565857,660.083862 637.518250,658.431580 
	C626.873779,655.936157 617.464355,660.987305 614.565979,671.511292 
	C613.036804,677.063721 612.283752,682.969421 612.147339,688.738464 
	C611.808655,703.062988 612.025635,717.400635 612.019592,731.732971 
	C612.018860,733.352600 612.019470,734.972229 612.019470,736.794373 
	C602.970459,736.794373 594.364197,736.794373 585.418274,736.794373 
	C585.418274,704.194153 585.418274,671.614014 585.418274,638.653442 
	C591.876221,638.653442 598.459534,638.653442 605.579407,638.653442 
	C606.798279,642.531006 608.111084,646.707214 609.466309,651.018555 
	C610.197083,650.745972 610.780579,650.711365 611.046448,650.402954 
	C622.850708,636.710632 641.475586,632.525330 658.130493,639.759827 
	C669.665894,644.770569 675.395020,654.158203 675.697693,666.055847 
	C676.294312,689.507019 675.873596,712.984070 675.873596,737.004456 
	C672.050110,737.004456 668.269226,737.004456 663.992554,737.004456 
z"/>
<path fill="#040401" opacity="1.000000" stroke="none" 
	d="
M761.236450,651.768555 
	C761.236389,654.196960 761.236389,656.163147 761.236389,658.483337 
	C751.993774,658.483337 743.223633,658.483337 734.057800,658.483337 
	C733.946899,660.268982 733.781860,661.707336 733.779968,663.145935 
	C733.761536,677.137329 733.710449,691.129150 733.793762,705.120056 
	C733.844788,713.697998 737.533936,717.475586 746.019104,717.116943 
	C751.266052,716.895142 756.475586,715.789734 762.305115,714.999207 
	C762.305115,720.664429 762.431396,726.430359 762.190369,732.180786 
	C762.146179,733.233582 760.800293,734.793518 759.729614,735.155151 
	C747.967712,739.127502 735.986816,740.409302 723.943176,736.633728 
	C713.402893,733.329590 707.347595,724.323242 707.044434,710.988708 
	C706.692261,695.505920 706.889038,680.010620 706.848877,664.520752 
	C706.844238,662.723389 706.848267,660.925964 706.848267,658.686035 
	C702.444580,658.686035 698.511108,658.686035 693.934814,658.686035 
	C693.934814,655.162109 693.656006,652.030701 694.065918,648.992188 
	C694.240906,647.695007 695.611267,646.005310 696.850952,645.493713 
	C706.186768,641.641418 711.107117,634.533997 713.808594,625.017090 
	C716.049011,617.124573 716.554871,617.268188 724.651001,617.268188 
	C727.454773,617.268188 730.258606,617.268188 733.655823,617.268188 
	C733.655823,624.353760 733.655823,631.074951 733.655823,638.149658 
	C743.015381,638.149658 751.786804,638.149658 761.236450,638.149658 
	C761.236450,642.775208 761.236450,647.040710 761.236450,651.768555 
z"/>
<path fill="#040401" opacity="1.000000" stroke="none" 
	d="
M826.916443,481.857178 
	C817.113770,485.208679 807.479675,486.659119 797.542664,485.282715 
	C781.721375,483.091339 773.540894,474.417175 773.071716,458.284790 
	C772.621399,442.802032 772.893066,427.298279 772.848999,411.803741 
	C772.843872,409.995056 772.848267,408.186371 772.848267,405.746094 
	C768.499023,405.746094 764.441833,405.746094 759.932251,405.746094 
	C759.932251,402.161407 759.664368,399.169525 760.052246,396.265228 
	C760.229675,394.936768 761.433960,393.136017 762.623291,392.648041 
	C772.547668,388.575836 777.945251,380.970764 780.008606,370.795197 
	C781.099548,365.415161 784.007935,363.457458 789.402283,364.187958 
	C792.630310,364.625061 795.965820,364.268188 799.655884,364.268188 
	C799.655884,371.410339 799.655884,378.006989 799.655884,385.137451 
	C808.953125,385.137451 817.851746,385.137451 826.985840,385.137451 
	C826.985840,392.108521 826.985840,398.540619 826.985840,405.373413 
	C818.097107,405.373413 809.335876,405.373413 800.421814,405.373413 
	C800.151733,406.475189 799.804749,407.234131 799.803223,407.993744 
	C799.773499,422.988953 799.696289,437.985046 799.822754,452.979309 
	C799.886658,460.565369 803.705017,464.371124 811.385986,464.113098 
	C816.808655,463.930969 822.200623,462.834961 828.685608,462.009521 
	C828.226868,468.499512 827.759766,475.107269 826.916443,481.857178 
z"/>
<path fill="#030301" opacity="1.000000" stroke="none" 
	d="
M298.870850,400.982483 
	C307.940338,387.260834 320.074158,381.294373 336.684967,384.411865 
	C336.058838,392.482269 335.434204,400.533295 334.815247,408.511353 
	C329.150665,408.893402 323.622070,408.666718 318.359894,409.742767 
	C306.454193,412.177338 300.104889,419.572113 299.775360,431.693512 
	C299.354584,447.168671 299.597229,462.661865 299.555389,478.147308 
	C299.550507,479.948944 299.554749,481.750580 299.554749,483.771759 
	C290.490143,483.771759 281.889191,483.771759 272.988525,483.771759 
	C272.988525,451.063690 272.988525,418.365540 272.988525,385.469086 
	C279.691376,385.469086 286.141968,385.469086 292.956207,385.469086 
	C293.998962,389.781067 294.933319,394.161560 296.181824,398.450653 
	C296.500885,399.546875 297.814148,400.353699 298.870850,400.982483 
z"/>
<path fill="#030201" opacity="1.000000" stroke="none" 
	d="
M714.849304,451.000061 
	C714.849304,462.126740 714.849304,472.753418 714.849304,483.690796 
	C705.804932,483.690796 697.094055,483.690796 688.151367,483.690796 
	C688.151367,451.022827 688.151367,418.460144 688.151367,385.282837 
	C694.172791,385.282837 700.122131,385.130341 706.048950,385.427429 
	C707.080566,385.479126 708.525269,387.273071 708.905762,388.527283 
	C710.232971,392.902130 711.176880,397.393219 712.549805,402.996368 
	C718.447205,394.337158 724.622375,387.249268 734.119263,385.011963 
	C739.661499,383.706268 745.547058,383.858124 752.052979,383.286133 
	C751.327148,392.393188 750.684570,400.456421 750.011108,408.906769 
	C746.000610,408.906769 742.066833,408.679993 738.166748,408.947144 
	C723.489197,409.952545 715.114380,418.830963 714.874939,433.517273 
	C714.782654,439.176819 714.853027,444.839081 714.849304,451.000061 
z"/>
<path fill="#FBD941" opacity="1.000000" stroke="none" 
	d="
M495.295715,417.609070 
	C498.932373,408.141754 504.099030,404.694672 513.673157,405.045624 
	C521.686646,405.339355 526.980896,409.615173 529.351135,418.559998 
	C532.214539,429.365417 532.179321,440.311829 529.006958,451.059631 
	C526.306091,460.210236 520.586548,464.286560 511.883667,463.937134 
	C502.980927,463.579742 497.215485,458.900391 495.176270,449.667877 
	C492.854279,439.155457 492.893005,428.552704 495.295715,417.609070 
z"/>
<path fill="#FAD841" opacity="1.000000" stroke="none" 
	d="
M188.640686,407.939819 
	C188.640686,397.638123 188.640686,387.827026 188.640686,376.931763 
	C196.139420,377.460022 203.302795,377.339935 210.208893,378.614227 
	C218.274857,380.102539 222.087997,385.641632 222.740982,394.474091 
	C223.389038,403.239502 219.880096,410.553070 212.140854,412.885284 
	C204.846558,415.083435 197.024811,415.531311 188.640686,416.876648 
	C188.640686,413.001251 188.640686,410.715851 188.640686,407.939819 
z"/>
<path fill="#FAD841" opacity="1.000000" stroke="none" 
	d="
M640.129333,419.438416 
	C640.475952,421.852417 640.600464,423.500732 637.715149,423.480011 
	C626.274963,423.397888 614.833801,423.446228 603.436584,423.446228 
	C602.581299,412.750824 609.045349,404.146912 618.457764,402.937927 
	C630.302246,401.416534 637.631348,406.856018 640.129333,419.438416 
z"/>
<path fill="#FAD841" opacity="1.000000" stroke="none" 
	d="
M401.242249,463.730286 
	C385.807922,464.882538 378.484344,459.477081 377.030792,444.404297 
	C376.215820,435.953400 376.702362,427.110626 378.289612,418.765289 
	C380.069183,409.408569 387.090607,405.032806 396.568970,405.155487 
	C406.100006,405.278839 412.432159,409.889648 414.864166,419.027496 
	C417.610504,429.346375 417.557404,439.797516 414.837860,450.110382 
	C413.031677,456.959595 408.993835,461.998138 401.242249,463.730286 
z"/>
</svg>